<svg xmlns="http://www.w3.org/2000/svg" width="34.337" height="35.311" viewBox="0 0 34.337 35.311">
  <path id="Path_251" data-name="Path 251" d="M19.612,23.1h6.92v4.126a10.18,10.18,0,0,1-5.616,1.406,9.117,9.117,0,0,1-9.524-9.412v-.1a9.053,9.053,0,0,1,8.975-9.315,12.623,12.623,0,0,1,8.469,3.2L34.55,6.364A20.875,20.875,0,0,0,20.314,1.417c-10.876,0-18.9,7.76-18.9,17.657v.1c0,10.283,8.172,17.556,19.1,17.556a24.552,24.552,0,0,0,10.552-2.321l4.689-10.737V16.21H19.612Z" transform="translate(-1.417 -1.417)" fill="#fff"/>
</svg>
