<svg xmlns="http://www.w3.org/2000/svg" width="32" height="32" viewBox="0 0 32 32">
  <g id="Group_17301" data-name="Group 17301" transform="translate(-265 -1302)">
    <circle id="Ellipse_2288" data-name="Ellipse 2288" cx="16" cy="16" r="16" transform="translate(265 1302)" fill="#fff"/>
    <g id="noun-newsletter-4426119" transform="translate(150.09 1272.692)">
      <path id="Path_9179" data-name="Path 9179" d="M131.2,238.627l-9.285-5.246v9.9a1.99,1.99,0,0,0,1.99,1.99h14.591a1.99,1.99,0,0,0,1.99-1.99v-9.9Z" transform="translate(0 -190.693)" fill="#004b3a"/>
      <path id="Path_9180" data-name="Path 9180" d="M126.843,43.208V37.33a.5.5,0,0,1,.5-.5h11.69a.5.5,0,0,1,.5.5v5.878l.995-.562,1.863-1.052-1.863-1.418V37.331a1.494,1.494,0,0,0-1.493-1.493h-4.21l-1.633-1.243-1.635,1.244H127.34a1.493,1.493,0,0,0-1.492,1.492v2.845l-1.863,1.418,1.863,1.052Z" transform="translate(-1.991)" fill="#004b3a"/>
      <path id="Path_9181" data-name="Path 9181" d="M266.03,124.361a3.079,3.079,0,0,0-1.308-.276,2.386,2.386,0,0,0-2.477,2.445c0,.882.5,1.414,1.212,1.414a1.507,1.507,0,0,0,1.308-.776h.031a.868.868,0,0,0,.958.776c1.212,0,2.073-1,2.073-2.53a3.072,3.072,0,0,0-3.264-3.083,3.96,3.96,0,0,0-4.019,4.04,3.266,3.266,0,0,0,3.36,3.36,4.605,4.605,0,0,0,1.967-.362s.437-.153.3-.485a.374.374,0,0,0-.49-.194,3.771,3.771,0,0,1-1.52.309,2.527,2.527,0,0,1-2.711-2.743,3.02,3.02,0,0,1,3-3.2,2.293,2.293,0,0,1,2.509,2.372c0,1.223-.553,1.743-.968,1.722-.276-.011-.331-.266-.246-.8Zm-1.383,1.627c-.085.595-.426.967-.733.967-.287,0-.435-.213-.435-.585a1.213,1.213,0,0,1,1.052-1.329.892.892,0,0,1,.244.032Z" transform="translate(-132.99 -84.163)" fill="#004b3a"/>
    </g>
  </g>
</svg>
